<?xml version="1.0" encoding="iso-8859-1"?>
<!-- Generator: Adobe Illustrator 19.0.0, SVG Export Plug-In . SVG Version: 6.00 Build 0)  -->
<svg version="1.1" id="Capa_1" xmlns="http://www.w3.org/2000/svg" xmlns:xlink="http://www.w3.org/1999/xlink" x="0px" y="0px"
	 viewBox="0 0 472 472" style="enable-background:new 0 0 472 472;" xml:space="preserve">
<g>
	<g>
		<g>
			<path d="M464,347.988h-15.512l7.44-54.928v-0.048l1.136-9.024c3.919-31.182-18.182-59.637-49.364-63.556
				c-2.355-0.296-4.727-0.444-7.1-0.444h-18.352l-6.488-25.944c-0.892-3.559-4.091-6.056-7.76-6.056h-32.752l8.68-62.904
				c0.605-4.377-2.452-8.415-6.829-9.021c-0.364-0.05-0.732-0.076-1.099-0.075H189.528c4.402-39.52-24.067-75.126-63.587-79.528
				c-39.52-4.402-75.126,24.067-79.528,63.587c-3.822,34.316,17.255,66.515,50.235,76.741l-23.624,171.2H56c-4.418,0-8,3.582-8,8v40
				c0,4.418,3.582,8,8,8h64c0,17.673,14.327,32,32,32s32-14.327,32-32h152c0,17.673,14.327,32,32,32c17.673,0,32-14.327,32-32h64
				c4.418,0,8-3.582,8-8v-40C472,351.57,468.418,347.988,464,347.988z M383.064,235.988H400.6
				c11.732,0.001,22.899,5.038,30.664,13.832h0c7.764,8.799,11.379,20.507,9.928,32.152l-0.256,2.016h-63.872L383.064,235.988z
				 M333.04,203.988h28.712l4.008,16h-34.928L333.04,203.988z M366.904,235.988l-6.872,55.008c-0.548,4.384,2.562,8.382,6.946,8.93
				c0.339,0.042,0.68,0.063,1.022,0.062h70.84l-6.496,48h-119.16l6.616-48l8.8-64H366.904z M62,107.988
				c0.035-30.913,25.087-55.965,56-56c30.928,0,56,25.072,56,56c0,30.928-25.072,56-56,56C87.072,163.988,62,138.916,62,107.988z
				 M112.376,179.7c1.856,0.144,3.712,0.288,5.6,0.288c30.476-0.054,57.623-19.273,67.8-48h141.048l-22.464,162.84l-7.336,53.16
				H89.176L112.376,179.7z M152,419.988c-8.837,0-16-7.163-16-16h32C168,412.825,160.837,419.988,152,419.988z M368,419.988
				c-8.837,0-16-7.163-16-16h32C384,412.825,376.837,419.988,368,419.988z M456,387.988H64v-24h392V387.988z"/>
			<rect x="32" y="203.988" width="48" height="16"/>
			<rect y="299.988" width="48" height="16"/>
			<rect x="16" y="251.988" width="48" height="16"/>
			<path d="M148.44,117.332L128,103.708v-35.72h-16v40c0,2.674,1.335,5.172,3.56,6.656l24,16L148.44,117.332z"/>
			<rect x="352" y="315.988" width="64" height="16"/>
			<rect x="200" y="315.988" width="64" height="16"/>
			<rect x="168" y="315.988" width="16" height="16"/>
			<rect x="136" y="315.988" width="16" height="16"/>
		</g>
	</g>
</g>
<g>
</g>
<g>
</g>
<g>
</g>
<g>
</g>
<g>
</g>
<g>
</g>
<g>
</g>
<g>
</g>
<g>
</g>
<g>
</g>
<g>
</g>
<g>
</g>
<g>
</g>
<g>
</g>
<g>
</g>
</svg>
